<?xml version="1.0" standalone="no"?>
<!DOCTYPE svg PUBLIC "-//W3C//DTD SVG 20010904//EN"
 "http://www.w3.org/TR/2001/REC-SVG-20010904/DTD/svg10.dtd">
<svg version="1.0" xmlns="http://www.w3.org/2000/svg"
 width="2812.000000pt" height="2812.000000pt" viewBox="0 0 2812.000000 2812.000000"
 preserveAspectRatio="xMidYMid meet">
<metadata>
Created by potrace 1.14, written by Peter Selinger 2001-2017
</metadata>
<g transform="translate(0.000000,2812.000000) scale(0.100000,-0.100000)"
fill="#000000" stroke="none">
<path d="M0 14060 l0 -14060 14060 0 14060 0 0 14060 0 14060 -14060 0 -14060
0 0 -14060z m17130 11424 c211 -38 305 -62 445 -111 265 -92 481 -228 681
-430 205 -205 298 -364 373 -635 44 -158 61 -412 41 -593 -39 -339 -224 -696
-486 -937 -32 -29 -90 -82 -128 -118 -39 -36 -109 -95 -156 -130 -47 -36 -86
-68 -88 -72 -2 -4 -8 -8 -14 -8 -6 0 -40 -22 -77 -49 -36 -27 -84 -59 -106
-71 -22 -13 -58 -33 -80 -46 -101 -57 -414 -209 -490 -237 -22 -8 -71 -27
-110 -41 -74 -29 -286 -99 -421 -140 -45 -14 -153 -41 -240 -61 -88 -20 -186
-43 -219 -50 -82 -20 -270 -51 -384 -65 -52 -6 -98 -13 -102 -15 -4 -3 -94
-12 -201 -20 -106 -8 -249 -19 -318 -25 -227 -19 -2628 -10 -2789 11 -88 11
-94 14 -88 46 2 13 -1 30 -9 37 -9 10 -11 38 -8 107 3 52 5 105 4 118 -1 84
66 100 530 125 307 18 554 24 1245 32 764 8 1368 60 1715 148 762 192 1354
419 1698 650 174 118 212 148 324 254 244 235 339 416 370 708 25 239 -35 478
-162 648 -149 200 -355 333 -650 417 -41 11 -86 25 -100 30 -27 10 -156 36
-235 49 -133 21 -195 54 -250 134 -36 52 -40 64 -43 132 -4 61 0 81 18 116 30
57 86 106 129 114 20 3 41 7 46 9 27 8 214 -9 335 -31z m-1289 -651 c77 -37
125 -82 173 -162 45 -73 60 -149 53 -259 -10 -141 -82 -254 -206 -324 -50 -28
-67 -31 -160 -36 -164 -7 -198 5 -296 103 -92 92 -98 101 -119 183 -32 121
-13 241 54 350 36 58 70 89 135 121 145 71 253 78 366 24z m-2876 -87 c160 -4
248 -13 372 -37 43 -8 59 -18 88 -52 71 -82 80 -193 25 -281 -51 -80 -56 -82
-285 -76 -437 11 -1263 3 -1465 -14 -326 -28 -392 -35 -480 -51 -165 -29 -266
-47 -345 -60 -44 -7 -98 -18 -120 -24 -22 -6 -94 -23 -160 -37 -294 -63 -756
-201 -1035 -309 -339 -131 -410 -159 -445 -175 -22 -10 -71 -33 -110 -51 -131
-60 -564 -279 -590 -299 -26 -19 -107 -38 -144 -33 -76 10 -170 118 -171 196
0 66 109 205 190 242 19 9 76 38 125 65 246 135 751 370 1005 467 204 77 482
166 876 278 324 92 837 183 1279 226 316 31 808 40 1390 25z m590 -1287 c55
-5 183 -16 285 -24 102 -8 232 -22 290 -30 210 -32 358 -57 505 -87 83 -17
179 -36 215 -43 36 -7 90 -20 120 -28 30 -8 98 -25 150 -37 123 -29 203 -67
262 -125 40 -41 48 -54 53 -100 4 -29 4 -71 0 -94 -8 -51 -54 -121 -96 -145
-57 -33 -237 -12 -494 59 -27 7 -106 23 -175 35 -69 11 -161 27 -205 35 -96
17 -327 47 -605 77 -192 22 -246 23 -860 23 -553 0 -678 -3 -800 -17 -80 -9
-181 -20 -225 -23 -44 -3 -103 -10 -130 -16 -28 -5 -84 -14 -125 -18 -646 -79
-1605 -364 -2159 -644 -415 -209 -645 -349 -939 -570 -427 -322 -696 -584
-1078 -1053 -180 -220 -410 -557 -539 -788 -339 -606 -525 -1327 -525 -2026 1
-519 121 -1016 346 -1425 178 -324 415 -614 652 -797 l104 -81 -4 -842 c-2
-464 -6 -847 -10 -851 -4 -3 -19 2 -34 12 -15 11 -50 35 -79 54 -29 19 -72 51
-97 70 -25 19 -72 55 -104 80 -32 24 -75 58 -95 75 -20 16 -56 46 -80 65 -184
145 -593 582 -790 845 -288 385 -541 867 -682 1300 -129 396 -207 932 -193
1340 15 491 102 953 254 1365 141 380 174 454 345 765 168 306 250 436 424
672 265 360 835 926 1272 1263 46 36 109 85 140 109 48 37 196 137 321 216
438 278 577 358 945 544 135 68 218 107 295 136 25 9 59 23 75 30 17 7 57 23
90 35 33 13 87 35 120 51 111 50 510 187 710 243 242 67 628 162 785 192 96
19 181 37 189 39 7 3 59 12 115 20 55 8 146 21 201 29 260 37 428 56 630 71
121 9 231 17 245 19 67 8 898 4 985 -5z m6005 -233 c23 -8 46 -28 68 -60 28
-43 32 -56 32 -116 0 -58 -4 -72 -29 -106 -45 -62 -67 -77 -120 -82 -69 -6
-92 2 -139 47 -57 56 -86 114 -77 159 9 51 42 102 88 140 33 27 47 32 91 31
28 0 67 -6 86 -13z m490 -1297 c156 -43 294 -167 355 -318 42 -103 50 -172 31
-288 -27 -175 -103 -295 -240 -382 -119 -74 -184 -93 -332 -92 -167 0 -273 40
-364 135 -75 79 -116 143 -147 233 -23 66 -27 94 -27 188 0 142 18 200 100
327 17 25 44 57 60 70 53 44 148 95 214 116 36 12 72 23 80 26 42 13 200 5
270 -15z m-14021 -125 c65 -38 100 -138 81 -228 -13 -59 -33 -91 -120 -181
-122 -128 -342 -403 -463 -580 -149 -217 -262 -391 -309 -475 -65 -116 -286
-554 -317 -630 -12 -30 -48 -116 -78 -190 -83 -201 -233 -663 -233 -715 0 -9
-8 -53 -19 -98 -10 -45 -28 -127 -41 -182 -26 -117 -61 -195 -98 -217 -15 -9
-52 -21 -83 -28 -49 -11 -60 -10 -93 5 -60 29 -116 132 -116 216 0 104 68 422
154 719 66 226 197 568 329 859 88 193 315 592 470 826 95 142 97 145 142 200
23 28 63 82 90 120 26 39 69 93 94 120 25 28 98 111 161 185 152 179 205 231
270 263 63 31 137 36 179 11z m6840 -694 c511 -28 1087 -133 1520 -276 57 -19
108 -34 113 -34 5 0 66 -22 136 -49 874 -340 1544 -835 2064 -1526 67 -90 169
-241 225 -335 95 -158 256 -518 327 -732 87 -262 160 -629 196 -991 19 -183 8
-671 -19 -876 -61 -459 -162 -797 -372 -1239 -144 -305 -409 -683 -672 -958
-263 -275 -620 -560 -848 -675 -55 -28 -79 -52 -67 -65 10 -9 695 184 828 233
190 71 503 218 690 326 441 253 869 633 1123 996 178 254 299 476 400 731 159
406 231 851 231 1420 -1 324 -15 491 -69 815 -49 292 -61 344 -150 605 -109
321 -170 464 -282 655 -97 167 -240 382 -293 440 -15 17 -38 46 -51 65 -63 93
-338 365 -489 485 -128 101 -312 216 -555 345 -55 29 -119 66 -142 82 -48 32
-77 79 -68 108 11 36 171 76 350 89 373 27 637 -25 980 -194 203 -100 353
-210 558 -413 252 -247 405 -441 575 -727 80 -135 112 -190 173 -305 84 -158
212 -522 274 -779 107 -443 156 -1014 121 -1421 -45 -518 -140 -903 -344
-1395 -28 -69 -177 -357 -222 -430 -252 -410 -498 -706 -860 -1034 -228 -207
-483 -384 -865 -603 -223 -128 -584 -282 -850 -364 -44 -14 -100 -31 -125 -39
-61 -18 -366 -92 -412 -99 -21 -3 -54 -8 -73 -11 -20 -4 -35 -12 -35 -19 0 -8
19 -40 43 -73 69 -93 200 -274 240 -330 98 -136 254 -437 353 -680 57 -140
333 -953 435 -1283 33 -107 87 -278 119 -380 74 -232 212 -678 296 -960 36
-118 94 -303 129 -410 35 -107 84 -260 110 -340 280 -869 505 -1339 798 -1665
279 -311 510 -453 837 -516 420 -80 882 117 1127 481 67 100 97 161 133 272
52 159 64 245 64 438 0 255 -36 431 -125 619 -69 146 -109 203 -214 306 -97
96 -194 159 -313 202 -62 23 -77 25 -197 20 -71 -3 -172 -12 -224 -22 -61 -11
-130 -16 -196 -13 -97 3 -102 4 -158 41 -74 49 -147 137 -192 232 -107 226
-83 468 70 700 240 364 756 493 1260 315 292 -104 613 -337 834 -605 133 -162
168 -212 245 -353 213 -390 318 -827 317 -1322 0 -676 -227 -1236 -693 -1710
-360 -367 -748 -573 -1258 -670 -379 -72 -875 -26 -1225 112 -215 85 -374 174
-565 317 -86 64 -328 299 -380 369 -19 26 -40 52 -46 57 -29 27 -264 364 -264
379 0 3 -22 43 -49 88 -59 101 -164 316 -237 491 -27 64 -36 87 -148 389 -65
177 -331 969 -420 1253 -26 83 -101 314 -166 515 -147 450 -418 1301 -495
1550 -116 380 -195 613 -313 925 -254 675 -602 1177 -1074 1544 -168 131 -533
330 -763 416 -111 42 -311 95 -356 95 -49 0 -32 18 24 25 282 36 550 88 752
146 210 61 658 264 845 384 316 201 598 457 768 694 40 56 147 216 194 291 54
85 183 343 226 455 90 230 162 534 192 810 18 170 24 509 11 640 -14 140 -56
408 -75 480 -117 433 -236 677 -491 1015 -164 215 -462 492 -705 653 -368 243
-982 487 -1450 575 -457 87 -577 97 -1170 97 -562 0 -543 2 -1124 -90 -183
-28 -502 -101 -726 -165 -251 -71 -338 -100 -517 -167 -98 -36 -198 -74 -223
-83 -25 -9 -71 -29 -104 -43 -32 -15 -60 -27 -62 -27 -1 0 -40 -17 -86 -38
-112 -53 -160 -72 -183 -77 -11 -2 -21 -4 -22 -4 -2 -1 -6 -1 -9 0 -4 0 -10
-5 -14 -11 -5 -8 -10 -1 -15 19 -5 24 -12 31 -31 31 -13 0 -24 4 -24 9 0 5
-18 12 -40 16 -31 5 -41 12 -46 31 -4 14 -14 30 -23 37 -9 6 -22 25 -29 40 -8
19 -18 27 -27 23 -9 -3 -12 0 -9 8 3 8 -8 23 -24 35 -34 24 -48 26 -55 9 -3
-9 -9 -7 -20 7 -14 18 -14 22 0 38 15 16 14 17 -5 17 -21 0 -26 11 -25 48 1 8
-5 11 -14 8 -11 -5 -13 -2 -9 10 4 10 -3 24 -18 38 -31 28 -37 47 -19 67 13
15 10 19 -31 34 -25 10 -43 22 -40 26 3 5 10 7 15 4 5 -4 9 -2 9 4 0 14 27 41
145 147 137 123 285 232 475 349 19 12 55 34 80 50 220 140 555 290 930 418
477 163 1162 298 1610 316 264 12 634 12 829 1z m8510 -1014 c74 -73 95 -129
89 -238 -6 -100 -25 -135 -101 -186 -79 -52 -180 -69 -258 -43 -82 27 -163
152 -162 249 1 102 33 169 111 225 60 44 68 46 179 44 l92 -2 50 -49z m-12579
-310 c0 -2 -11 -6 -25 -8 -14 -3 -25 -1 -25 3 0 5 11 9 25 9 14 0 25 -2 25 -4z
m11015 -407 c48 -14 182 -143 266 -259 62 -84 199 -287 199 -294 0 -2 23 -42
51 -88 64 -104 190 -358 240 -483 108 -272 165 -516 216 -920 23 -182 27 -248
27 -495 1 -169 -5 -336 -12 -410 -31 -291 -100 -621 -172 -820 -76 -210 -192
-471 -218 -493 -11 -8 -14 -8 -9 0 8 13 -22 48 -32 37 -3 -4 0 -9 7 -11 14 -5
17 -53 2 -53 -12 0 -35 41 -32 58 2 6 -4 12 -12 12 -10 0 -13 6 -10 18 5 14 4
14 -4 2 -6 -8 -8 -18 -6 -22 3 -4 -2 -8 -11 -8 -9 0 -14 4 -10 9 3 5 1 12 -5
16 -6 3 -13 0 -16 -9 -3 -8 -15 -14 -25 -13 -16 1 -17 4 -7 12 15 12 23 39 9
31 -5 -4 -11 -1 -13 4 -2 7 -11 4 -23 -5 -20 -16 -20 -16 3 -10 13 4 22 2 22
-4 0 -6 -8 -11 -18 -11 -21 0 -72 40 -72 57 0 6 -9 13 -20 16 -13 3 -21 -1
-26 -15 -5 -16 -8 -18 -15 -7 -6 11 -9 10 -15 -4 -8 -21 -24 -22 -24 -2 0 8 5
15 11 15 6 0 9 6 6 13 -6 15 12 89 55 232 17 55 36 125 43 156 6 31 15 60 18
66 3 5 9 25 12 44 3 19 12 63 20 99 28 127 74 427 87 570 16 183 16 595 0 720
-24 185 -54 347 -89 485 -34 136 -128 440 -143 460 -4 6 -18 39 -33 75 -54
138 -166 358 -242 475 -21 33 -46 74 -55 90 -10 17 -40 67 -69 113 -28 46 -51
85 -51 88 0 2 -16 29 -36 59 -91 143 -95 269 -10 350 62 60 149 79 241 54z
m-7485 -684 c10 -12 11 -759 5 -3607 -3 -1976 -9 -3613 -11 -3638 -3 -25 -5
-50 -6 -56 -1 -6 -12 -9 -25 -6 -20 4 -24 10 -23 36 3 46 1 51 -12 38 -17 -17
-25 -15 -31 8 -3 11 -12 20 -21 20 -9 0 -16 6 -16 14 0 18 -40 28 -46 12 -2
-6 -16 -13 -29 -14 -20 -1 -26 5 -34 31 l-9 32 -1 -35 c-1 -23 -4 -31 -10 -22
-4 8 -12 13 -17 12 -5 -1 -10 4 -13 11 -2 8 2 10 13 6 10 -4 16 -1 16 8 0 22
-40 19 -41 -2 0 -12 -4 -9 -10 9 -12 31 -37 44 -46 23 -5 -14 -7 -13 -18 1 -8
12 -14 14 -19 6 -9 -15 -53 -16 -61 -2 -3 6 2 11 12 11 16 1 16 2 -1 6 -11 3
-26 11 -34 19 -12 12 -18 11 -43 -7 l-29 -20 0 26 c0 14 -4 24 -9 21 -5 -4
-11 -1 -13 6 -3 7 -14 9 -31 4 -18 -4 -24 -11 -21 -21 9 -22 -52 -20 -64 2 -6
10 -16 14 -26 10 -10 -4 -15 -3 -11 3 3 6 14 10 23 10 16 1 16 1 0 11 -11 6
-15 16 -11 27 5 14 3 14 -9 -2 -19 -24 -51 -15 -41 11 4 10 11 21 17 25 7 5 3
8 -8 8 -12 0 -16 5 -12 16 9 23 -21 63 -44 57 -11 -3 -17 -9 -14 -14 3 -5 9
-7 14 -4 13 8 18 -18 8 -37 -4 -10 -17 -22 -27 -28 -16 -8 -18 -7 -14 9 6 24
-11 35 -26 17 -8 -10 -9 -16 -1 -21 5 -3 10 -12 10 -18 0 -7 -4 -6 -10 3 -7
11 -10 11 -10 2 0 -7 -4 -11 -9 -8 -5 3 -7 14 -5 24 3 9 -4 33 -14 54 -14 27
-23 34 -33 27 -8 -5 -9 -9 -3 -9 27 0 22 -41 -9 -71 -27 -28 -31 -29 -40 -13
-6 10 -10 31 -9 48 1 29 0 30 -14 12 -12 -17 -14 -18 -14 -3 0 9 -5 17 -11 17
-5 0 -7 5 -3 11 4 7 -7 4 -25 -7 -17 -10 -31 -26 -31 -36 0 -9 -5 -20 -11 -24
-8 -4 -7 -9 2 -15 11 -6 11 -12 0 -33 -8 -14 -17 -23 -22 -21 -4 3 -10 0 -12
-5 -3 -6 -4 -5 -3 2 2 7 0 20 -4 28 -5 8 -11 85 -15 170 -4 85 -9 182 -10 215
-6 116 -15 2013 -20 4303 l-5 2313 23 9 c12 5 281 9 598 9 499 1 578 -1 589
-14z m-1836 -73 c-1 -47 -7 -80 -18 -96 -8 -14 -64 -57 -123 -97 -250 -168
-378 -322 -457 -549 -43 -125 -57 -227 -62 -470 -2 -124 -6 -1840 -8 -3815
l-4 -3590 -21 -80 c-42 -160 -153 -356 -366 -645 -71 -96 -154 -209 -184 -251
-180 -245 -402 -536 -452 -593 -19 -23 -82 -99 -139 -171 -57 -71 -109 -137
-116 -145 -7 -8 -41 -49 -76 -90 -35 -41 -85 -102 -113 -134 -27 -32 -85 -101
-128 -154 -42 -52 -103 -122 -136 -156 -32 -33 -78 -83 -102 -111 -74 -85
-232 -257 -265 -289 -30 -30 -283 -317 -354 -400 -19 -23 -94 -107 -165 -186
-72 -80 -160 -181 -195 -225 -36 -44 -76 -93 -90 -108 -65 -73 -171 -227 -207
-301 -49 -98 -102 -276 -110 -372 -9 -106 36 -379 70 -421 15 -20 23 -9 70 90
24 51 79 142 122 202 43 61 94 133 114 162 40 57 332 429 442 563 38 47 113
138 165 203 52 65 114 139 137 166 23 26 96 114 162 196 66 81 163 198 215
259 52 61 124 149 160 196 35 47 104 135 152 195 49 61 92 115 96 120 4 6 37
48 72 95 59 78 230 290 255 316 5 6 21 26 35 44 55 73 220 282 292 371 42 51
151 189 243 304 91 116 192 241 223 280 31 38 85 108 120 155 88 120 100 132
122 120 24 -13 33 -43 25 -83 -10 -49 -77 -185 -138 -279 -30 -46 -56 -89 -58
-94 -9 -23 -115 -187 -190 -294 -44 -63 -114 -164 -155 -225 -41 -60 -96 -140
-122 -176 -26 -37 -87 -125 -136 -195 -94 -136 -174 -244 -378 -510 -68 -89
-165 -217 -217 -285 -52 -68 -131 -169 -176 -224 -45 -55 -115 -145 -156 -200
-95 -127 -151 -201 -186 -245 -15 -19 -80 -102 -143 -183 -63 -82 -135 -174
-160 -206 -25 -32 -108 -139 -185 -239 -77 -100 -180 -232 -228 -294 -159
-203 -297 -429 -313 -514 -8 -40 27 -82 94 -113 59 -28 78 -25 147 21 59 39
311 272 383 355 87 98 271 325 315 386 23 32 89 121 147 198 58 77 112 151
120 163 24 35 316 434 368 502 131 172 299 404 382 529 51 77 112 165 136 195
23 31 68 94 99 140 32 47 74 108 95 135 192 259 249 338 317 441 43 66 119
175 168 244 49 69 99 141 111 160 13 19 37 54 54 77 16 23 30 46 30 51 0 6 18
26 39 45 22 19 37 38 33 41 -3 3 2 6 11 6 12 0 17 8 17 27 0 32 7 27 14 -10 3
-21 1 -27 -12 -27 -15 -1 -14 -3 2 -15 11 -8 14 -15 8 -15 -21 0 -13 -22 11
-28 19 -6 17 -7 -13 -12 -22 -3 -35 -11 -35 -20 0 -8 -4 -18 -10 -22 -7 -5 -6
-14 1 -25 7 -12 8 -27 3 -42 -11 -29 -5 -39 23 -37 19 1 23 7 23 31 0 20 6 31
18 33 9 2 17 10 17 18 0 8 5 14 10 14 6 0 10 7 10 15 0 8 6 15 14 15 8 0 19
13 25 30 5 17 15 30 20 30 16 0 13 -46 -4 -60 -8 -7 -13 -16 -10 -20 3 -5 1
-11 -5 -15 -5 -3 -10 -15 -10 -26 0 -10 -3 -19 -8 -19 -4 0 -15 -17 -25 -37
-9 -21 -21 -45 -27 -53 -5 -8 -55 -96 -110 -195 -56 -99 -109 -188 -118 -198
-8 -9 -70 -102 -138 -205 -67 -103 -165 -252 -217 -332 -52 -80 -129 -201
-171 -270 -68 -111 -123 -194 -245 -366 -148 -208 -199 -281 -222 -313 -15
-20 -85 -121 -155 -226 -118 -174 -213 -307 -426 -595 -185 -250 -162 -223
-462 -567 -97 -111 -205 -228 -241 -260 -36 -32 -65 -61 -65 -65 0 -24 224 12
348 56 55 20 202 93 262 131 75 47 173 130 232 197 103 116 137 161 284 378
47 69 112 163 145 210 33 47 159 234 279 415 121 182 238 357 262 390 60 86
370 551 456 686 40 63 112 175 159 249 47 74 123 191 168 260 45 69 103 157
128 195 55 84 76 109 98 117 13 5 17 1 16 -20 -1 -15 -5 -29 -8 -32 -4 -3 -9
-31 -13 -63 -3 -31 -13 -68 -22 -82 -9 -13 -13 -29 -9 -35 7 -11 46 -5 83 13
19 9 25 8 32 -3 13 -20 12 -60 -1 -60 -5 0 -8 -4 -4 -9 3 -5 -1 -16 -9 -24 -8
-8 -13 -16 -11 -18 2 -2 -12 -29 -30 -59 -19 -30 -49 -84 -68 -120 -38 -70
-98 -172 -254 -430 -433 -715 -680 -1105 -1031 -1625 -275 -409 -271 -403
-445 -602 -106 -121 -172 -178 -307 -266 -136 -88 -256 -145 -390 -183 -122
-36 -131 -37 -333 -41 -245 -6 -319 3 -495 58 -219 70 -361 169 -519 364 -93
115 -185 299 -222 449 -52 204 -49 461 8 641 99 310 245 534 562 860 64 66
161 170 215 231 102 114 305 334 449 484 44 47 91 99 104 115 12 17 57 66 99
110 171 181 209 222 247 270 22 28 84 96 138 153 53 57 121 133 151 170 29 37
109 128 177 202 68 74 137 153 154 175 16 22 67 81 112 132 l83 92 -8 208 c-5
114 -10 224 -10 243 -1 19 -4 1462 -7 3205 -7 3797 -17 5128 -38 5230 -36 168
-60 246 -109 344 -45 92 -63 116 -148 200 -52 53 -143 130 -200 171 -143 103
-200 160 -200 203 0 33 26 67 60 80 8 3 548 5 1200 4 l1185 -2 -1 -73z m11644
-272 c7 -11 23 -64 36 -118 92 -381 177 -594 283 -709 43 -49 232 -151 326
-178 93 -27 270 -96 290 -113 47 -41 18 -58 -268 -158 -169 -58 -280 -119
-353 -194 -72 -73 -98 -113 -141 -218 -35 -85 -104 -333 -131 -476 -20 -101
-36 -138 -69 -155 -14 -8 -22 -7 -29 2 -6 7 -36 109 -67 227 -92 354 -146 492
-227 585 -98 111 -268 199 -538 279 -47 13 -99 27 -116 31 -43 8 -72 40 -57
63 11 19 10 18 243 98 197 67 309 121 397 191 79 63 104 98 153 217 35 82 138
405 176 546 8 30 18 65 24 78 12 28 51 29 68 2z m-8189 -329 c18 -18 49 -107
91 -262 40 -148 118 -361 156 -422 77 -128 129 -174 273 -247 70 -35 76 -37
281 -110 167 -58 221 -85 214 -104 -3 -8 -31 -24 -62 -36 -31 -12 -71 -27 -87
-35 -17 -7 -73 -27 -125 -45 -52 -17 -114 -40 -137 -51 -24 -10 -47 -19 -53
-19 -29 0 -172 -99 -228 -158 -104 -110 -173 -285 -272 -689 -32 -129 -54
-174 -80 -158 -16 10 -28 45 -56 160 -98 401 -171 591 -264 686 -45 45 -104
92 -148 117 -34 19 -314 129 -348 136 -65 15 -209 75 -212 89 -5 23 30 42 147
82 395 137 526 205 595 309 66 101 141 296 197 515 27 107 66 236 76 254 7 12
22 8 42 -12z m-9346 -1518 c45 -27 81 -105 117 -258 110 -465 244 -814 482
-1250 80 -146 105 -186 217 -345 183 -260 425 -541 602 -701 164 -147 381
-312 619 -470 147 -98 563 -322 715 -385 28 -12 84 -29 125 -39 41 -10 81 -22
88 -28 15 -11 17 -443 3 -466 -11 -16 -2 -18 -206 44 -327 101 -716 297 -1100
555 -418 282 -888 749 -1206 1200 -411 582 -654 1192 -764 1916 -8 52 23 146
62 187 63 67 170 84 246 40z m18717 -482 c19 -9 50 -36 68 -61 32 -42 34 -47
30 -116 -3 -63 -7 -78 -34 -110 -53 -65 -76 -78 -147 -77 -35 0 -73 5 -84 12
-12 6 -40 38 -62 72 -48 71 -53 118 -21 184 53 110 145 146 250 96z m-1574
-616 c372 -64 727 -208 1065 -431 475 -313 764 -671 981 -1213 68 -169 83
-220 123 -417 157 -765 67 -1425 -275 -2020 -168 -292 -313 -474 -555 -697
-159 -147 -288 -245 -420 -321 -127 -73 -139 -80 -145 -86 -11 -11 -93 -50
-105 -50 -7 0 -18 -6 -24 -14 -6 -7 -33 -21 -59 -31 -26 -9 -69 -27 -97 -40
-56 -26 -180 -65 -219 -69 -14 -1 -29 -5 -32 -9 -3 -3 -12 -3 -19 -1 -7 3 -15
-2 -19 -11 -3 -9 -10 -13 -16 -10 -6 4 -8 12 -4 18 3 7 0 5 -8 -3 -7 -8 -22
-22 -32 -30 -18 -14 -19 -14 -6 10 16 31 29 40 58 40 13 0 21 4 18 8 -7 12
-66 13 -66 1 0 -5 -4 -9 -9 -9 -5 0 -8 18 -6 40 3 33 0 43 -19 55 -14 9 -31
13 -42 8 -19 -7 -19 -6 0 12 26 27 64 45 80 39 8 -3 16 3 19 15 3 12 13 21 22
21 13 0 16 6 11 23 -3 12 -6 27 -6 33 0 6 -10 16 -22 23 -13 6 -15 9 -5 7 12
-4 17 0 17 14 0 24 -20 37 -31 19 -7 -11 -9 -11 -9 2 0 9 16 23 38 33 29 12
31 15 9 11 -18 -4 -26 -1 -25 7 2 7 -3 12 -11 13 -8 0 -16 7 -18 15 -4 13 -3
13 6 0 9 -12 11 -11 11 8 0 12 5 22 10 22 6 0 10 -9 10 -20 0 -11 5 -20 10
-20 6 0 10 6 10 14 0 8 7 13 16 12 9 0 19 5 22 13 3 8 0 11 -7 7 -6 -4 -9 -2
-5 7 3 8 17 20 33 28 15 8 56 29 92 46 146 74 471 291 529 353 3 3 52 46 110
96 367 318 616 758 709 1254 44 233 47 536 8 805 -32 224 -46 289 -95 440
-113 348 -248 569 -507 829 -324 325 -645 499 -1198 647 -188 50 -236 82 -257
170 -24 100 10 207 81 257 24 16 53 32 64 35 40 10 125 7 211 -8z m-1536 -259
c0 -3 -4 -8 -10 -11 -5 -3 -10 -1 -10 4 0 6 5 11 10 11 6 0 10 -2 10 -4z m115
-30 c8 -7 12 -16 9 -19 -10 -9 -34 4 -34 19 0 18 8 18 25 0z m1186 -1202 c198
-26 362 -93 525 -214 141 -105 217 -190 312 -348 56 -91 99 -197 128 -312 16
-62 19 -111 19 -280 0 -220 -6 -261 -56 -419 -91 -284 -303 -565 -574 -759
-192 -138 -440 -250 -765 -348 -366 -110 -677 -185 -1105 -268 -159 -31 -321
-63 -360 -71 -38 -8 -128 -26 -200 -40 -71 -14 -152 -30 -180 -35 -172 -35
-314 -60 -341 -60 -17 0 -34 -3 -38 -7 -13 -13 -65 -11 -77 3 -12 15 -34 20
-25 6 2 -4 -7 -12 -20 -19 -20 -9 -24 -8 -24 4 0 8 -5 11 -12 7 -7 -4 -8 -3
-4 4 4 6 14 8 23 5 13 -5 15 -2 10 11 -4 9 -3 15 2 11 5 -3 13 -1 16 5 5 7 11
8 19 1 6 -5 18 -6 25 -2 10 6 8 10 -6 16 -16 7 -15 8 6 14 23 6 24 8 8 21 -37
32 -42 35 -54 36 -7 1 -20 2 -28 3 -8 0 -15 10 -15 20 0 10 7 21 15 25 8 3 15
11 15 18 0 9 -3 9 -10 -2 -5 -8 -12 -11 -16 -7 -4 4 1 16 10 26 20 22 12 46
-11 36 -13 -4 -14 -3 -4 9 7 8 10 20 6 26 -3 5 1 13 9 16 12 5 13 10 4 24 -11
17 -31 21 -44 7 -4 -4 -18 -7 -30 -7 -17 0 -22 5 -21 21 1 18 6 20 34 16 24
-4 37 0 55 18 24 24 200 81 378 123 82 20 703 172 845 208 77 19 183 48 235
64 52 15 165 47 250 70 235 63 502 160 760 276 379 171 602 393 685 679 46
161 29 342 -47 493 -61 122 -203 225 -382 276 -177 52 -443 27 -701 -64 -179
-63 -467 -198 -689 -322 -50 -29 -113 -63 -141 -78 -27 -14 -68 -38 -90 -52
-22 -14 -110 -64 -195 -111 -200 -109 -288 -160 -380 -217 -41 -26 -124 -73
-185 -103 -113 -58 -180 -94 -351 -190 -108 -60 -183 -97 -196 -97 -5 0 -21
-9 -36 -20 -15 -11 -38 -22 -52 -24 -14 -3 -25 -5 -25 -6 0 -1 -11 -4 -25 -5
-24 -3 -25 -1 -27 51 -1 36 2 54 10 54 8 0 9 3 1 8 -18 12 -26 45 -12 54 10 6
8 8 -4 8 -27 0 -22 30 5 31 18 1 19 2 4 6 -15 4 -18 11 -12 31 4 15 7 37 8 49
1 11 6 19 11 15 5 -3 6 8 3 26 -6 31 6 45 16 20 4 -8 6 -7 6 4 1 9 4 23 7 32
4 11 1 16 -10 16 -9 0 -16 6 -16 14 0 22 11 46 22 46 5 0 6 -5 2 -12 -4 -7 -3
-8 5 -4 6 4 9 11 6 16 -3 4 6 15 20 24 14 9 25 15 25 12 0 -2 14 9 30 24 28
26 254 179 317 215 15 8 46 27 68 40 22 14 68 42 103 62 77 46 137 83 244 149
46 28 166 102 268 164 102 61 212 129 245 150 90 57 369 213 550 306 302 156
511 228 780 268 194 30 280 32 446 10z m-8310 -1076 c107 -53 298 -249 465
-478 231 -315 409 -666 591 -1160 19 -52 50 -138 70 -190 115 -315 243 -704
438 -1335 84 -273 150 -483 200 -635 30 -91 63 -196 73 -235 19 -66 61 -206
166 -550 52 -168 69 -226 121 -400 19 -66 42 -142 50 -170 31 -102 104 -363
125 -448 21 -84 21 -89 4 -108 -15 -17 -16 -36 -11 -187 4 -92 9 -178 12 -192
12 -58 17 -270 6 -270 -6 0 -11 5 -11 11 0 5 -5 7 -10 4 -6 -4 -7 -11 -4 -17
4 -7 -4 -8 -25 -3 -25 5 -31 3 -31 -10 0 -9 5 -13 10 -10 6 3 10 -1 10 -10 0
-9 -5 -13 -11 -9 -8 4 -9 -3 -5 -23 7 -29 6 -30 -26 -25 -40 5 -61 20 -54 39
3 7 1 13 -4 13 -5 0 -12 11 -16 25 -6 26 -34 35 -34 11 0 -17 -60 -30 -74 -16
-5 5 -17 10 -25 9 -11 0 -12 -2 -3 -6 17 -7 15 -23 -3 -23 -8 0 -14 -3 -13 -7
1 -5 -1 -18 -6 -30 -8 -26 -36 -31 -36 -8 0 8 -7 15 -15 15 -13 0 -19 19 -18
57 1 7 -4 13 -9 13 -6 0 -8 -22 -5 -54 4 -48 2 -55 -15 -59 -20 -6 -58 19 -58
38 0 6 -6 20 -14 30 -12 16 -16 17 -30 6 -14 -11 -16 -11 -16 3 0 25 -36 19
-54 -9 -9 -14 -21 -23 -26 -20 -6 4 -10 1 -10 -4 0 -6 -11 -11 -25 -11 -28 0
-45 27 -25 40 7 4 10 14 7 21 -3 9 -10 2 -18 -17 -10 -24 -16 -30 -28 -24 -40
21 -85 40 -96 40 -7 0 -17 6 -23 13 -7 8 -30 11 -66 9 -51 -4 -56 -6 -56 -27
0 -18 -4 -22 -20 -18 -14 4 -20 0 -20 -10 0 -9 10 -18 23 -20 16 -3 14 -5 -9
-6 -24 -1 -33 4 -37 18 -6 24 0 31 25 31 35 0 12 84 -24 85 -24 1 -28 -20 -5
-27 l22 -6 -21 -7 c-16 -5 -24 -18 -28 -48 -9 -51 -33 -82 -53 -66 -17 15 -17
30 1 23 11 -4 12 3 6 33 -3 22 -3 48 0 59 4 10 5 23 2 28 -3 5 -6 133 -7 285
-1 152 -7 328 -14 391 -24 240 -40 379 -60 500 -11 69 -29 181 -40 250 -12 69
-50 274 -87 455 -36 182 -72 362 -80 400 -18 92 -43 206 -99 450 -26 110 -53
229 -61 265 -30 135 -168 697 -211 855 -156 583 -301 1018 -491 1470 -92 219
-206 407 -373 615 -61 75 -87 224 -53 293 20 41 81 96 114 103 14 3 30 7 35 9
6 2 44 4 86 4 66 1 84 -3 140 -31z m-7891 -459 c119 -27 277 -146 343 -259 59
-102 76 -293 36 -413 -58 -173 -162 -282 -332 -346 -80 -29 -256 -30 -348 -1
-67 20 -144 67 -193 116 -90 90 -156 258 -156 395 0 154 91 341 204 417 60 41
150 82 201 92 58 11 193 11 245 -1z m5940 -649 c0 -5 -4 -10 -10 -10 -5 0 -10
5 -10 10 0 6 5 10 10 10 6 0 10 -4 10 -10z m265 -30 c3 -5 1 -10 -4 -10 -6 0
-11 5 -11 10 0 6 2 10 4 10 3 0 8 -4 11 -10z m-58 -32 c-3 -8 -6 -5 -6 6 -1
11 2 17 5 13 3 -3 4 -12 1 -19z m705 -210 c-7 -7 -12 -8 -12 -2 0 14 12 26 19
19 2 -3 -1 -11 -7 -17z m158 -113 c0 -9 -6 -12 -15 -9 -8 4 -12 10 -9 15 8 14
24 10 24 -6z m-5476 -378 c9 -12 29 -79 45 -149 44 -186 106 -368 166 -494 46
-95 63 -119 118 -170 82 -75 221 -148 397 -208 171 -58 224 -85 228 -112 4
-29 -22 -44 -153 -89 -381 -130 -505 -211 -594 -390 -38 -76 -125 -360 -151
-490 -23 -115 -50 -194 -71 -206 -11 -6 -23 -8 -26 -6 -2 3 -29 99 -58 214
-77 298 -96 359 -147 473 -30 65 -103 162 -150 197 -100 75 -277 154 -498 223
-74 23 -138 47 -142 53 -18 29 65 72 291 148 198 68 324 134 393 206 59 62
168 319 223 528 51 193 74 275 80 285 11 17 34 11 49 -13z m11861 -8 c-10 -15
-25 -10 -19 6 4 8 10 12 15 9 5 -3 7 -10 4 -15z m-9 -75 c-19 -18 -21 -11 -4
19 7 14 13 17 15 10 3 -7 -3 -20 -11 -29z m-6994 -84 c79 -22 146 -54 225
-109 83 -58 93 -68 157 -154 101 -136 158 -300 160 -457 1 -93 0 -96 -42 -177
-24 -46 -47 -83 -52 -83 -5 0 -12 -10 -16 -22 -11 -36 -589 -608 -614 -608
-12 0 -33 11 -48 25 -25 22 -138 123 -354 315 -179 159 -237 212 -345 318 -62
60 -113 117 -113 127 0 20 39 71 150 195 42 47 114 132 160 190 97 121 280
307 360 367 143 105 208 117 372 73z m10213 -549 c-6 -5 -25 10 -25 20 0 5 6
4 14 -3 8 -7 12 -15 11 -17z m5 -26 c0 -17 -2 -18 -24 -9 -23 9 -20 24 4 24
11 0 20 -7 20 -15z m-133 -147 c-3 -8 -6 -5 -6 6 -1 11 2 17 5 13 3 -3 4 -12
1 -19z m73 -82 c0 -3 -4 -8 -10 -11 -5 -3 -10 -1 -10 4 0 6 5 11 10 11 6 0 10
-2 10 -4z m-11780 -1364 c0 -5 -11 -14 -25 -20 -29 -13 -31 -10 -9 12 17 17
34 21 34 8z m33 -69 c-7 -2 -19 -2 -25 0 -7 3 -2 5 12 5 14 0 19 -2 13 -5z
m-4750 -195 c4 -15 -44 -38 -79 -38 -16 0 -22 4 -18 14 8 20 35 29 48 16 15
-15 26 -12 20 5 -4 9 0 15 9 15 8 0 17 -6 20 -12z m4981 -387 c-8 -9 -22 12
-17 26 6 15 7 14 13 -3 4 -10 6 -21 4 -23z m3018 -578 c57 -21 70 -34 104 -96
24 -45 28 -63 29 -133 0 -76 -3 -85 -47 -176 -46 -94 -106 -187 -212 -333 -74
-102 -267 -345 -328 -412 -75 -83 -326 -333 -334 -333 -4 0 -21 -16 -40 -35
-18 -19 -37 -35 -42 -35 -18 0 -22 31 -6 37 12 4 13 8 3 13 -8 6 -5 11 10 19
11 7 21 18 21 26 0 8 5 15 11 15 24 0 2 33 -23 36 -16 1 -37 5 -47 9 -11 3
-22 1 -26 -5 -4 -6 6 -10 24 -10 42 0 39 -17 -4 -22 -36 -4 -49 9 -39 37 4 8
1 15 -5 15 -6 0 -11 -10 -11 -22 0 -32 -9 -17 -12 20 -2 23 -7 32 -20 32 -28
0 -24 46 5 55 20 6 20 8 3 12 -15 4 -16 7 -5 14 10 6 7 9 -12 9 -15 0 -29 -7
-33 -15 -3 -8 -12 -15 -20 -15 -12 0 -13 6 -5 29 8 22 7 36 -5 59 -15 29 -15
29 17 40 l32 10 -33 7 c-21 5 -31 12 -28 21 3 8 0 11 -10 7 -7 -3 -14 0 -14 7
0 8 11 11 30 8 17 -3 30 -1 30 4 0 4 -4 8 -10 8 -14 0 -13 27 2 36 6 4 8 3 4
-4 -3 -6 -2 -13 4 -17 5 -3 10 -1 10 4 0 6 5 11 10 11 14 0 13 -33 -2 -48 -9
-9 -7 -12 10 -12 17 0 22 6 22 24 0 14 -5 28 -11 31 -6 4 -8 14 -5 22 4 11 2
13 -9 9 -21 -8 -19 -2 7 20 12 10 18 13 13 5 -5 -9 -3 -12 6 -9 8 3 13 13 13
22 -1 9 4 16 12 16 8 0 14 4 14 9 0 16 82 101 91 95 5 -3 6 1 4 8 -3 8 36 61
92 123 92 103 250 301 300 377 12 18 60 94 106 168 80 126 141 200 177 213 33
12 142 6 182 -10z m1268 -979 c0 -8 -5 -12 -10 -9 -6 4 -8 11 -5 16 9 14 15
11 15 -7z m77 -31 c-3 -10 -5 -2 -5 17 0 19 2 27 5 18 2 -10 2 -26 0 -35z
m-30 5 c-3 -8 -6 -5 -6 6 -1 11 2 17 5 13 3 -3 4 -12 1 -19z m599 3 c22 4 44
-2 44 -12 0 -5 -4 -8 -9 -4 -6 3 -14 -3 -20 -12 -6 -11 -11 -13 -11 -5 0 9 -7
11 -20 7 -17 -5 -20 -2 -20 21 0 21 3 24 14 15 8 -6 18 -11 22 -10z m111 -37
c-3 -3 -12 -4 -19 -1 -8 3 -5 6 6 6 11 1 17 -2 13 -5z m-3147 -115 c0 -5 5 -7
10 -4 6 3 10 -1 10 -9 0 -21 -3 -20 -25 4 -10 11 -13 20 -7 20 7 0 12 -5 12
-11z m95 -158 c3 -5 1 -12 -5 -16 -5 -3 -10 -16 -10 -28 -1 -20 -2 -20 -11 -4
-5 9 -18 17 -28 17 -25 0 -32 10 -18 26 14 15 63 19 72 5z m25 -91 c0 -5 -5
-10 -11 -10 -5 0 -7 5 -4 10 3 6 8 10 11 10 2 0 4 -4 4 -10z m110 -155 c0 -2
-9 -9 -20 -15 -16 -9 -20 -8 -20 5 0 8 9 15 20 15 11 0 20 -2 20 -5z m-40 -45
c0 -5 -4 -10 -10 -10 -5 0 -10 5 -10 10 0 6 5 10 10 10 6 0 10 -4 10 -10z
m-70 -70 c-8 -5 -19 -10 -25 -10 -5 0 -3 5 5 10 8 5 20 10 25 10 6 0 3 -5 -5
-10z"/>
<path d="M11250 11891 c0 -5 7 -11 14 -14 10 -4 13 -1 9 9 -6 15 -23 19 -23 5z"/>
<path d="M11240 11850 c0 -5 5 -10 10 -10 6 0 10 5 10 10 0 6 -4 10 -10 10 -5
0 -10 -4 -10 -10z"/>
<path d="M11830 11650 c0 -5 4 -10 9 -10 6 0 13 5 16 10 3 6 -1 10 -9 10 -9 0
-16 -4 -16 -10z"/>
<path d="M10340 7700 c0 -5 5 -10 10 -10 6 0 10 5 10 10 0 6 -4 10 -10 10 -5
0 -10 -4 -10 -10z"/>
<path d="M10275 7669 c-4 -6 -4 -13 -1 -16 3 -3 1 -12 -5 -20 -6 -7 -8 -13 -4
-13 11 0 44 44 38 52 -6 11 -21 10 -28 -3z"/>
<path d="M21990 10309 c0 -5 9 -9 20 -9 11 0 20 2 20 4 0 2 -9 6 -20 9 -11 3
-20 1 -20 -4z"/>
<path d="M21955 10280 c-8 -13 4 -32 16 -24 5 3 7 9 4 14 -3 5 3 11 12 13 14
4 13 5 -4 6 -12 0 -25 -3 -28 -9z"/>
<path d="M22010 10280 c0 -5 5 -10 11 -10 5 0 7 5 4 10 -3 6 -8 10 -11 10 -2
0 -4 -4 -4 -10z"/>
<path d="M21890 10116 c0 -2 7 -9 15 -16 12 -10 15 -10 15 4 0 9 -7 16 -15 16
-8 0 -15 -2 -15 -4z"/>
<path d="M14490 6566 c0 -9 5 -16 10 -16 6 0 10 4 10 9 0 6 -4 13 -10 16 -5 3
-10 -1 -10 -9z"/>
<path d="M14530 6570 c0 -5 5 -10 10 -10 6 0 10 5 10 10 0 6 -4 10 -10 10 -5
0 -10 -4 -10 -10z"/>
<path d="M14551 6534 c0 -11 3 -14 6 -6 3 7 2 16 -1 19 -3 4 -6 -2 -5 -13z"/>
<path d="M14595 6520 c-11 -17 11 -34 32 -25 15 6 15 8 3 13 -8 3 -18 9 -21
15 -4 5 -9 4 -14 -3z"/>
<path d="M14815 6490 c3 -5 8 -10 11 -10 2 0 4 5 4 10 0 6 -5 10 -11 10 -5 0
-7 -4 -4 -10z"/>
<path d="M14850 6480 c0 -5 5 -10 10 -10 6 0 10 5 10 10 0 6 -4 10 -10 10 -5
0 -10 -4 -10 -10z"/>
<path d="M15235 6480 c-3 -5 -1 -10 4 -10 6 0 11 5 11 10 0 6 -2 10 -4 10 -3
0 -8 -4 -11 -10z"/>
<path d="M14755 6467 c-4 -10 -5 -21 -1 -24 10 -10 18 4 13 24 -4 17 -4 17
-12 0z"/>
<path d="M15031 6463 c0 -6 -4 -20 -7 -30 -5 -14 -4 -15 5 -7 7 7 11 20 8 30
-3 11 -5 14 -6 7z"/>
<path d="M14850 6451 c0 -5 7 -11 14 -14 10 -4 13 -1 9 9 -6 15 -23 19 -23 5z"/>
<path d="M15040 6404 c0 -8 5 -12 10 -9 6 4 8 11 5 16 -9 14 -15 11 -15 -7z"/>
<path d="M12338 6216 c-18 -14 -25 -56 -9 -56 5 0 11 9 14 21 3 12 10 19 14
16 5 -3 10 3 10 14 2 22 -5 23 -29 5z"/>
<path d="M12365 6160 c3 -5 8 -10 11 -10 2 0 4 5 4 10 0 6 -5 10 -11 10 -5 0
-7 -4 -4 -10z"/>
<path d="M12500 6029 c0 -5 10 -9 22 -9 12 0 18 3 14 7 -10 11 -36 12 -36 2z"/>
</g>
</svg>
